<?xml version="1.0" encoding="UTF-8"?>
<!DOCTYPE svg PUBLIC "-//W3C//DTD SVG 1.1//EN" "http://www.w3.org/Graphics/SVG/1.1/DTD/svg11.dtd">
<svg xmlns="http://www.w3.org/2000/svg" version="1.1" width="478px" height="117px" style="shape-rendering:geometricPrecision; text-rendering:geometricPrecision; image-rendering:optimizeQuality; fill-rule:evenodd; clip-rule:evenodd" xmlns:xlink="http://www.w3.org/1999/xlink">
<g><path style="opacity:1" fill="#ecedec" d="M -0.5,-0.5 C 158.833,-0.5 318.167,-0.5 477.5,-0.5C 477.5,38.5 477.5,77.5 477.5,116.5C 318.167,116.5 158.833,116.5 -0.5,116.5C -0.5,77.5 -0.5,38.5 -0.5,-0.5 Z"/></g>
<g><path style="opacity:1" fill="#563d86" d="M 36.5,20.5 C 36.3343,24.8461 36.501,29.1794 37,33.5C 37.6708,32.7476 38.5041,32.4142 39.5,32.5C 36.0672,35.0585 32.4005,37.3919 28.5,39.5C 27.3361,45.8072 27.1694,52.1405 28,58.5C 30.9877,60.3991 33.8211,62.3991 36.5,64.5C 37.1667,65.8333 37.8333,67.1667 38.5,68.5C 35.2771,66.6358 32.1104,64.6358 29,62.5C 27.4201,65.9717 27.0867,69.6384 28,73.5C 31.1454,75.9765 34.312,78.3098 37.5,80.5C 36.5166,84.2984 36.1832,88.2984 36.5,92.5C 29.0721,89.5844 22.2388,85.5844 16,80.5C 15.3333,64.8333 15.3333,49.1667 16,33.5C 22.4705,28.5166 29.3039,24.1833 36.5,20.5 Z"/></g>
<g><path style="opacity:1" fill="#f0f6f2" d="M 74.5,67.5 C 70.0614,69.554 65.728,71.8873 61.5,74.5C 60.3401,70.5411 60.1735,66.5411 61,62.5C 67.2493,58.9592 73.4159,55.2926 79.5,51.5C 81.2121,48.2032 80.3788,45.8699 77,44.5C 70.1838,48.2418 63.5172,52.2418 57,56.5C 56.8303,62.5275 56.3303,68.5275 55.5,74.5C 52.3388,73.0869 49.3388,71.4203 46.5,69.5C 45.3361,63.1928 45.1694,56.8595 46,50.5C 52.2817,46.9459 58.4483,43.2792 64.5,39.5C 62.6541,37.4076 60.3208,36.0742 57.5,35.5C 50.9682,38.4551 44.6349,41.7885 38.5,45.5C 37.8332,51.9875 37.1666,58.3208 36.5,64.5C 33.8211,62.3991 30.9877,60.3991 28,58.5C 27.1694,52.1405 27.3361,45.8072 28.5,39.5C 32.4005,37.3919 36.0672,35.0585 39.5,32.5C 45.788,30.0227 51.788,27.0227 57.5,23.5C 67.6316,28.9413 77.9649,34.108 88.5,39C 89.6433,45.4184 89.81,51.9184 89,58.5C 83.9859,61.4127 79.1526,64.4127 74.5,67.5 Z"/></g>
<g><path style="opacity:1" fill="#592979" d="M 379.5,24.5 C 385.462,23.3105 389.462,25.4772 391.5,31C 389.667,37.0869 385.667,39.0869 379.5,37C 375.787,35.3088 374.621,32.4755 376,28.5C 376.69,26.6498 377.856,25.3164 379.5,24.5 Z"/></g>
<g><path style="opacity:1" fill="#592a79" d="M 114.5,32.5 C 120.5,32.5 126.5,32.5 132.5,32.5C 134.836,41.3414 137.669,50.0081 141,58.5C 141.667,57.8333 142.333,57.1667 143,56.5C 145.155,48.354 147.988,40.5206 151.5,33C 157.157,32.5006 162.824,32.3339 168.5,32.5C 168.5,47.5 168.5,62.5 168.5,77.5C 163.833,77.5 159.167,77.5 154.5,77.5C 154.666,70.1591 154.5,62.8258 154,55.5C 151.932,62.5358 149.766,69.5358 147.5,76.5C 143.5,77.8333 139.5,77.8333 135.5,76.5C 133.436,69.8078 131.269,63.1411 129,56.5C 128.5,63.4921 128.334,70.4921 128.5,77.5C 123.833,77.5 119.167,77.5 114.5,77.5C 114.5,62.5 114.5,47.5 114.5,32.5 Z"/></g>
<g><path style="opacity:1" fill="#592979" d="M 217.5,32.5 C 222.167,32.5 226.833,32.5 231.5,32.5C 231.5,35.5 231.5,38.5 231.5,41.5C 233.5,41.5 235.5,41.5 237.5,41.5C 237.5,45.1667 237.5,48.8333 237.5,52.5C 235.5,52.5 233.5,52.5 231.5,52.5C 231.334,56.5138 231.501,60.5138 232,64.5C 233.699,65.4061 235.533,65.7394 237.5,65.5C 237.5,69.5 237.5,73.5 237.5,77.5C 231.536,77.9671 226.036,76.6338 221,73.5C 217.934,66.8558 216.768,59.8558 217.5,52.5C 216.167,52.5 214.833,52.5 213.5,52.5C 213.5,48.8333 213.5,45.1667 213.5,41.5C 214.833,41.5 216.167,41.5 217.5,41.5C 217.5,38.5 217.5,35.5 217.5,32.5 Z"/></g>
<g><path style="opacity:1" fill="#5a2a79" d="M 399.5,63.5 C 399.5,59.8333 399.5,56.1667 399.5,52.5C 397.833,52.5 396.167,52.5 394.5,52.5C 394.5,48.8333 394.5,45.1667 394.5,41.5C 396.167,41.5 397.833,41.5 399.5,41.5C 399.5,38.5 399.5,35.5 399.5,32.5C 404.167,32.5 408.833,32.5 413.5,32.5C 413.5,35.5 413.5,38.5 413.5,41.5C 415.167,41.5 416.833,41.5 418.5,41.5C 418.5,45.1667 418.5,48.8333 418.5,52.5C 416.833,52.5 415.167,52.5 413.5,52.5C 413.5,56.8333 413.5,61.1667 413.5,65.5C 415.5,65.5 417.5,65.5 419.5,65.5C 419.5,69.5 419.5,73.5 419.5,77.5C 414.284,77.8657 409.284,77.0324 404.5,75C 401.051,71.9354 399.384,68.1021 399.5,63.5 Z"/></g>
<g><path style="opacity:1" fill="#592979" d="M 191.5,40.5 C 204.444,41.4462 210.777,48.4462 210.5,61.5C 202.833,61.5 195.167,61.5 187.5,61.5C 187.352,64.3523 188.686,66.019 191.5,66.5C 197.307,64.3137 203.307,63.9804 209.5,65.5C 203.316,77.5067 193.982,80.6733 181.5,75C 170.994,64.5563 170.994,54.223 181.5,44C 184.776,42.3077 188.109,41.141 191.5,40.5 Z"/></g>
<g><path style="opacity:1" fill="#592979" d="M 251.5,41.5 C 254.85,41.335 258.183,41.5017 261.5,42C 263.286,42.7845 264.786,43.9512 266,45.5C 266.49,44.2068 266.657,42.8734 266.5,41.5C 271.167,41.5 275.833,41.5 280.5,41.5C 280.5,53.5 280.5,65.5 280.5,77.5C 275.833,77.5 271.167,77.5 266.5,77.5C 266.66,75.8008 266.494,74.1341 266,72.5C 259.28,79.0658 252.447,79.0658 245.5,72.5C 240.019,63.358 240.185,54.358 246,45.5C 247.812,44.0229 249.645,42.6896 251.5,41.5 Z"/></g>
<g><path style="opacity:1" fill="#592979" d="M 296.5,41.5 C 299.85,41.335 303.183,41.5017 306.5,42C 307.931,42.4652 309.097,43.2986 310,44.5C 310.483,43.552 310.649,42.552 310.5,41.5C 315.167,41.5 319.833,41.5 324.5,41.5C 324.5,59.1667 324.5,76.8333 324.5,94.5C 319.833,94.5 315.167,94.5 310.5,94.5C 310.666,87.4921 310.5,80.4921 310,73.5C 303.129,78.9529 296.463,78.6196 290,72.5C 282.571,59.9929 284.738,49.6596 296.5,41.5 Z"/></g>
<g><path style="opacity:1" fill="#592979" d="M 331.5,41.5 C 335.833,41.5 340.167,41.5 344.5,41.5C 344.334,48.5079 344.5,55.5079 345,62.5C 348.333,67.8333 351.667,67.8333 355,62.5C 355.5,55.5079 355.666,48.5079 355.5,41.5C 360.167,41.5 364.833,41.5 369.5,41.5C 369.5,53.5 369.5,65.5 369.5,77.5C 364.833,77.5 360.167,77.5 355.5,77.5C 355.725,71.4035 354.059,70.9035 350.5,76C 343.495,78.9073 337.661,77.4073 333,71.5C 331.577,61.5797 331.077,51.5797 331.5,41.5 Z"/></g>
<g><path style="opacity:1" fill="#5a2b7a" d="M 376.5,41.5 C 381.167,41.5 385.833,41.5 390.5,41.5C 390.5,53.5 390.5,65.5 390.5,77.5C 385.833,77.5 381.167,77.5 376.5,77.5C 376.5,65.5 376.5,53.5 376.5,41.5 Z"/></g>
<g><path style="opacity:1" fill="#592979" d="M 421.5,42.5 C 426.64,41.5119 431.974,41.1786 437.5,41.5C 439.174,47.6887 441.34,53.6887 444,59.5C 446.172,53.65 448.338,47.8166 450.5,42C 455.5,41.3333 460.5,41.3333 465.5,42C 458.146,59.21 450.646,76.3766 443,93.5C 437.918,94.637 432.751,94.8037 427.5,94C 430.9,88.0325 433.9,81.8658 436.5,75.5C 431.725,64.2907 426.725,53.2907 421.5,42.5 Z"/></g>
<g><path style="opacity:1" fill="#c8dcce" d="M 190.5,51.5 C 193.278,51.0217 195.278,52.0217 196.5,54.5C 193.5,55.8333 190.5,55.8333 187.5,54.5C 188.34,53.265 189.34,52.265 190.5,51.5 Z"/></g>
<g><path style="opacity:1" fill="#32c36b" d="M 394.5,52.5 C 396.167,52.5 397.833,52.5 399.5,52.5C 399.5,56.1667 399.5,59.8333 399.5,63.5C 398.521,60.3752 398.187,57.0419 398.5,53.5C 396.901,53.7678 395.568,53.4345 394.5,52.5 Z"/></g>
<g><path style="opacity:1" fill="#59337f" d="M 74.5,67.5 C 75.1667,68.1667 75.8333,68.8333 76.5,69.5C 71.752,72.3777 66.752,75.0443 61.5,77.5C 60.1667,81.5 60.1667,85.5 61.5,89.5C 66.2003,87.1079 70.8669,84.7745 75.5,82.5C 74.5701,86.3998 74.2367,90.3998 74.5,94.5C 69.3527,98.5789 63.686,101.912 57.5,104.5C 49.9861,101.248 42.9861,97.2477 36.5,92.5C 36.1832,88.2984 36.5166,84.2984 37.5,80.5C 43.7231,83.7787 50.0565,86.7787 56.5,89.5C 56.6653,85.8183 56.4986,82.1516 56,78.5C 50.2207,75.0284 44.3874,71.695 38.5,68.5C 37.8333,67.1667 37.1667,65.8333 36.5,64.5C 37.1666,58.3208 37.8332,51.9875 38.5,45.5C 44.6349,41.7885 50.9682,38.4551 57.5,35.5C 60.3208,36.0742 62.6541,37.4076 64.5,39.5C 58.4483,43.2792 52.2817,46.9459 46,50.5C 45.1694,56.8595 45.3361,63.1928 46.5,69.5C 49.3388,71.4203 52.3388,73.0869 55.5,74.5C 56.3303,68.5275 56.8303,62.5275 57,56.5C 63.5172,52.2418 70.1838,48.2418 77,44.5C 80.3788,45.8699 81.2121,48.2032 79.5,51.5C 73.4159,55.2926 67.2493,58.9592 61,62.5C 60.1735,66.5411 60.3401,70.5411 61.5,74.5C 65.728,71.8873 70.0614,69.554 74.5,67.5 Z"/></g>
<g><path style="opacity:1" fill="#dae3dd" d="M 260.5,52.5 C 266.172,54.1833 267.839,57.85 265.5,63.5C 260.205,66.9775 256.872,65.6442 255.5,59.5C 255.497,55.7984 257.164,53.4651 260.5,52.5 Z"/></g>
<g><path style="opacity:1" fill="#dbe4de" d="M 304.5,52.5 C 309.676,53.843 311.509,57.1764 310,62.5C 304.86,67.1067 301.36,66.1067 299.5,59.5C 300.014,56.3227 301.681,53.9894 304.5,52.5 Z"/></g>
<g><path style="opacity:1" fill="#e5f3e9" d="M 38.5,68.5 C 44.3874,71.695 50.2207,75.0284 56,78.5C 56.4986,82.1516 56.6653,85.8183 56.5,89.5C 50.0565,86.7787 43.7231,83.7787 37.5,80.5C 34.312,78.3098 31.1454,75.9765 28,73.5C 27.0867,69.6384 27.4201,65.9717 29,62.5C 32.1104,64.6358 35.2771,66.6358 38.5,68.5 Z"/></g>
<g><path style="opacity:1" fill="#f0f5f2" d="M 75.5,82.5 C 70.8669,84.7745 66.2003,87.1079 61.5,89.5C 60.1667,85.5 60.1667,81.5 61.5,77.5C 66.752,75.0443 71.752,72.3777 76.5,69.5C 80.8818,67.5589 85.0485,65.2255 89,62.5C 89.6667,66.5 89.6667,70.5 89,74.5C 84.1821,76.7147 79.6821,79.3813 75.5,82.5 Z"/></g>
<g><path style="opacity:1" fill="#5a2b7a" d="M 74.5,94.5 C 74.2367,90.3998 74.5701,86.3998 75.5,82.5C 79.6821,79.3813 84.1821,76.7147 89,74.5C 89.6667,70.5 89.6667,66.5 89,62.5C 85.0485,65.2255 80.8818,67.5589 76.5,69.5C 75.8333,68.8333 75.1667,68.1667 74.5,67.5C 79.1526,64.4127 83.9859,61.4127 89,58.5C 89.81,51.9184 89.6433,45.4184 88.5,39C 77.9649,34.108 67.6316,28.9413 57.5,23.5C 51.788,27.0227 45.788,30.0227 39.5,32.5C 38.5041,32.4142 37.6708,32.7476 37,33.5C 36.501,29.1794 36.3343,24.8461 36.5,20.5C 42.3733,16.7958 48.3733,13.2958 54.5,10C 56.5,9.33333 58.5,9.33333 60.5,10C 73.2486,17.1227 85.7486,24.6227 98,32.5C 98.6667,48.8333 98.6667,65.1667 98,81.5C 90.2598,86.0903 82.4265,90.4236 74.5,94.5 Z"/></g>
</svg>
